<?xml version="1.0" encoding="utf-8"?>
<!-- Generator: Adobe Illustrator 16.0.4, SVG Export Plug-In . SVG Version: 6.00 Build 0)  -->
<!DOCTYPE svg PUBLIC "-//W3C//DTD SVG 1.1//EN" "http://www.w3.org/Graphics/SVG/1.1/DTD/svg11.dtd">
<svg version="1.1" id="Calque_1" xmlns="http://www.w3.org/2000/svg" xmlns:xlink="http://www.w3.org/1999/xlink" x="0px" y="0px"
	 width="300px" height="300px" viewBox="0 0 300 300" enable-background="new 0 0 300 300" xml:space="preserve">
<g>
	<path fill="#FFFFFF" d="M19.6,19.984v260.8h187.776v-18.256v-18.256v-18.256V207.76h18.256h18.256h18.257H280.4V19.984H19.6z
		 M188.729,137.475l-12.912,12.91l-12.907,12.909L150,176.203l-12.909,12.907l-12.907-12.907l-12.91-12.909l-12.909-12.909
		l12.907-12.91l12.909,12.91l12.907,12.906L150,150.385l12.909-12.91l12.907-12.909l12.91-12.907l12.906,12.907L188.729,137.475z"/>
	<polygon fill="#FFFFFF" points="281,217 216,281 216,217 281,217 	"/>
</g>
</svg>
