<?xml version="1.0" encoding="utf-8"?>
<!-- Generator: Adobe Illustrator 16.0.4, SVG Export Plug-In . SVG Version: 6.00 Build 0)  -->
<!DOCTYPE svg PUBLIC "-//W3C//DTD SVG 1.1//EN" "http://www.w3.org/Graphics/SVG/1.1/DTD/svg11.dtd">
<svg version="1.1" id="Calque_1" xmlns="http://www.w3.org/2000/svg" xmlns:xlink="http://www.w3.org/1999/xlink" x="0px" y="0px"
	 width="300px" height="300px" viewBox="0 0 300 300" enable-background="new 0 0 300 300" xml:space="preserve">
<g>
	<g>
		<path fill="#FFFFFF" d="M153.498,33.166c-60,0-108.821,48.824-108.821,108.82c0,60.006,48.82,108.822,108.821,108.822
			c60.002,0,108.822-48.816,108.822-108.822C262.32,81.99,213.508,33.166,153.498,33.166z M180.561,145.822h-17.704
			c0,28.286,0,63.104,0,63.104h-26.232c0,0,0-34.484,0-63.104h-12.474v-22.302h12.474v-14.426c0-10.333,4.91-26.479,26.476-26.479
			l19.438,0.076v21.652c0,0-11.814,0-14.109,0c-2.299,0-5.564,1.146-5.564,6.069v13.107h19.99L180.561,145.822z"/>
	</g>
</g>
</svg>
