<?xml version="1.0" encoding="utf-8"?>
<!-- Generator: Adobe Illustrator 16.0.4, SVG Export Plug-In . SVG Version: 6.00 Build 0)  -->
<!DOCTYPE svg PUBLIC "-//W3C//DTD SVG 1.1//EN" "http://www.w3.org/Graphics/SVG/1.1/DTD/svg11.dtd">
<svg version="1.1" id="Calque_1" xmlns="http://www.w3.org/2000/svg" xmlns:xlink="http://www.w3.org/1999/xlink" x="0px" y="0px"
	 width="300px" height="300px" viewBox="0 0 300 300" enable-background="new 0 0 300 300" xml:space="preserve">
<path fill="#FFFFFF" d="M153.042,40.531c-60.577,0-109.866,49.293-109.866,109.865c0,60.58,49.289,109.866,109.866,109.866
	s109.866-49.286,109.866-109.866C262.908,89.824,213.627,40.531,153.042,40.531z M155.493,216.582c0,0-64.349-39.617-64.21-71.698
	c0.076-17.44,13.89-38.673,35.247-38.673c9.795,0,22.149,6.384,28.964,12.388c6.814-6.004,19.171-12.388,28.967-12.388
	c21.354,0,35.178,21.229,35.256,38.673C219.855,176.97,155.493,216.582,155.493,216.582z"/>
</svg>
