<?xml version="1.0" encoding="utf-8"?>
<!-- Generator: Adobe Illustrator 16.0.4, SVG Export Plug-In . SVG Version: 6.00 Build 0)  -->
<!DOCTYPE svg PUBLIC "-//W3C//DTD SVG 1.1//EN" "http://www.w3.org/Graphics/SVG/1.1/DTD/svg11.dtd">
<svg version="1.1" id="Calque_1" xmlns="http://www.w3.org/2000/svg" xmlns:xlink="http://www.w3.org/1999/xlink" x="0px" y="0px"
	 width="300px" height="300px" viewBox="0 0 300 300" enable-background="new 0 0 300 300" xml:space="preserve">
<path fill="#FFFFFF" d="M124.656,265.152c5.089,9.32,14.976,15.647,26.344,15.647s21.253-6.327,26.344-15.647H124.656z"/>
<path fill="#FFFFFF" d="M179.688,215.6c5.217,0,10.433-5.216,10.433-10.432c0-44.336,39.12-50.357,39.12-106.928
	C229.24,55.028,194.209,20,151,20c-43.212,0-78.24,35.028-78.24,78.24c0,56.57,39.12,62.592,39.12,106.928
	c0,5.216,5.216,10.432,10.432,10.432H179.688z"/>
<path fill="#FFFFFF" d="M184.904,229.943c0,3.586-2.935,6.521-6.521,6.521h-54.768c-3.586,0-6.521-2.935-6.521-6.521l0,0
	c0-3.586,2.935-6.52,6.521-6.52h54.768C181.97,223.424,184.904,226.357,184.904,229.943L184.904,229.943z"/>
<path fill="#FFFFFF" d="M184.904,250.809c0,3.586-2.935,6.52-6.521,6.52h-54.768c-3.586,0-6.521-2.934-6.521-6.52l0,0
	c0-3.586,2.935-6.521,6.521-6.521h54.768C181.97,244.288,184.904,247.223,184.904,250.809L184.904,250.809z"/>
</svg>
