<?xml version="1.0" encoding="utf-8"?>
<!-- Generator: Adobe Illustrator 16.0.4, SVG Export Plug-In . SVG Version: 6.00 Build 0)  -->
<!DOCTYPE svg PUBLIC "-//W3C//DTD SVG 1.1//EN" "http://www.w3.org/Graphics/SVG/1.1/DTD/svg11.dtd">
<svg version="1.1" id="Calque_1" xmlns="http://www.w3.org/2000/svg" xmlns:xlink="http://www.w3.org/1999/xlink" x="0px" y="0px"
	 width="300px" height="300px" viewBox="0 0 300 300" enable-background="new 0 0 300 300" xml:space="preserve">
<path fill="#FFFFFF" d="M164.146,225.135c-7.41,0-14.818,0-22.229,0c-2.559-0.349-5.127-0.646-7.677-1.057
	c-43.212-6.976-75.794-29.586-98.251-66.981c-4.391-7.312-4.246-7.399-0.016-14.829c26.962-47.358,80.062-74.074,133.869-67.123
	c34.646,4.476,63.124,20.497,85.922,46.813c7.152,8.257,12.94,17.439,18.109,27.03c0,0.473,0,0.946,0,1.419
	c-2.944,4.926-5.627,10.033-8.874,14.751c-21.08,30.629-49.652,50.163-86.219,57.648
	C173.946,223.799,169.026,224.37,164.146,225.135z M95.923,112.696c-0.636,0.333-0.993,0.491-1.322,0.695
	c-14.5,8.982-26.332,20.684-35.739,34.896c-0.865,1.308-0.473,2.105,0.241,3.124c25.545,36.503,60.357,54.456,105,50.479
	c35.44-3.154,62.699-21.091,82.746-50.268c0.906-1.32,1.074-2.273,0.1-3.731c-9.199-13.758-20.68-25.158-34.682-34.001
	c-0.606-0.383-1.262-0.69-2.116-1.153c9.703,29.705-2.863,56.406-22.507,70.086c-20.599,14.347-48.399,14.416-69.039,0.136
	C98.782,169.243,86.195,142.493,95.923,112.696z M153.002,125.558c-0.014-12.56-10.139-22.665-22.693-22.651
	c-12.56,0.015-22.665,10.139-22.65,22.692c0.015,12.56,10.138,22.665,22.692,22.65C142.91,148.235,153.017,138.112,153.002,125.558z
	"/>
</svg>
