<?xml version="1.0" encoding="utf-8"?>
<!-- Generator: Adobe Illustrator 16.0.4, SVG Export Plug-In . SVG Version: 6.00 Build 0)  -->
<!DOCTYPE svg PUBLIC "-//W3C//DTD SVG 1.1//EN" "http://www.w3.org/Graphics/SVG/1.1/DTD/svg11.dtd">
<svg version="1.1" id="Calque_1" xmlns="http://www.w3.org/2000/svg" xmlns:xlink="http://www.w3.org/1999/xlink" x="0px" y="0px"
	 width="300px" height="300px" viewBox="0 0 300 300" enable-background="new 0 0 300 300" xml:space="preserve">
<path fill="#FFFFFF" d="M259.964,245.015l-31.571-42.762c11.49-12.874,20.146-28.612,24.581-46.531
	c14.53-58.72-21.284-118.11-80.009-132.648c-9.212-2.28-18.449-3.323-27.517-3.229C96.705,20.342,52.571,53.57,40.317,103.08
	c-14.539,58.722,21.281,118.112,80.006,132.646c9.21,2.286,18.447,3.329,27.515,3.232c16.263-0.16,31.973-4.042,46.195-10.885
	l31.479,42.634c7.083,9.488,20.502,11.47,30.016,4.419C265.086,268.043,267.075,254.552,259.964,245.015z M147.536,208.108
	c-6.618,0.064-13.277-0.714-19.801-2.334c-42.112-10.42-67.894-53.167-57.466-95.277c8.623-34.842,39.663-59.436,75.484-59.801
	c6.613-0.07,13.275,0.714,19.801,2.329c42.111,10.427,67.888,53.171,57.464,95.285C214.396,183.154,183.353,207.747,147.536,208.108
	z"/>
</svg>
