<?xml version="1.0" encoding="utf-8"?>
<!-- Generator: Adobe Illustrator 16.0.4, SVG Export Plug-In . SVG Version: 6.00 Build 0)  -->
<!DOCTYPE svg PUBLIC "-//W3C//DTD SVG 1.1//EN" "http://www.w3.org/Graphics/SVG/1.1/DTD/svg11.dtd">
<svg version="1.1" id="Calque_1" xmlns="http://www.w3.org/2000/svg" xmlns:xlink="http://www.w3.org/1999/xlink" x="0px" y="0px"
	 width="300px" height="300px" viewBox="0 0 300 300" enable-background="new 0 0 300 300" xml:space="preserve">
<g>
	<g>
		<path fill="#FFFFFF" d="M153.042,31.077c-60.577,0-109.866,49.293-109.866,109.865c0,60.58,49.289,109.866,109.866,109.866
			s109.866-49.286,109.866-109.866C262.908,80.37,213.627,31.077,153.042,31.077z M202.054,115.8
			c0.046,1.088,0.073,2.186,0.073,3.283c0,33.416-25.43,71.938-71.952,71.938c-14.278,0-27.573-4.175-38.761-11.356
			c1.979,0.233,3.989,0.354,6.033,0.354c11.851,0,22.749-4.046,31.405-10.821c-11.063-0.207-20.406-7.511-23.623-17.562
			c1.539,0.293,3.129,0.448,4.755,0.448c2.303,0,4.542-0.293,6.664-0.872c-11.569-2.325-20.282-12.542-20.282-24.798
			c0-0.104,0-0.217,0.005-0.32c3.405,1.893,7.303,3.034,11.448,3.164c-6.78-4.529-11.245-12.273-11.245-21.047
			c0-4.641,1.245-8.98,3.418-12.714c12.468,15.298,31.107,25.359,52.12,26.422c-0.433-1.85-0.653-3.776-0.653-5.766
			c0-13.959,11.323-25.29,25.286-25.29c7.273,0,13.838,3.078,18.456,7.987c5.767-1.132,11.164-3.233,16.065-6.138
			c-1.903,5.912-5.899,10.857-11.137,13.994c5.121-0.613,10.008-1.961,14.523-3.975C211.284,107.787,206.997,112.247,202.054,115.8z
			"/>
	</g>
</g>
</svg>
