<svg xmlns="http://www.w3.org/2000/svg" viewBox="0 0 141.56 80"><title>logo</title><path d="M141.56,36.17l-8-13.33L138,7.45l-22.84,3.27,10.58,11.1L33.44,37.69,35.32,49,21.91,51.35l8.33,13.1L26.26,80,49,76,38.13,66.24l9-1.54h0l83.32-14.32-2-12.32ZM68.38,49.42l-2.47.44,0.68,3.84-3.46.62L60.69,40.68l5.94-1.06c3.49-.62,5.8.74,6.34,3.78C73.54,46.59,71.87,48.8,68.38,49.42ZM84.59,50.5L81.88,47h-0.1l-2.65.51,0.68,3.84L76.37,52,73.94,38.32,80,37.24c3.6-.64,6,0.71,6.52,3.75a4.62,4.62,0,0,1-1.69,4.82l3.67,4ZM97,48.5a7.13,7.13,0,0,1-8.54-5.36q0-.16-0.07-0.32c-0.71-4,1.93-7.48,6.13-8.23s7.91,1.65,8.62,5.6a7.15,7.15,0,0,1-5.87,8.23l-0.27,0v0Z" style="fill:#fff"/><path d="M95,37.44a4,4,0,0,0-3.14,4.7v0a4,4,0,0,0,4.52,3.4h0.06A4.13,4.13,0,0,0,95,37.44Z" style="fill:#fff"/><path d="M66.95,42.38l-2.3.41,0.77,4.35,2.3-.41c1.52-.27,2.26-1.19,2-2.63S68.47,42.11,66.95,42.38Z" style="fill:#fff"/><path d="M80.53,40l-2.63.47,0.77,4.34,2.63-.47a2.11,2.11,0,0,0,2-2.62C83,40.26,82,39.7,80.53,40Z" style="fill:#fff"/><polygon points="38.17 66.24 49.02 76.05 47.14 64.69 47.14 64.69 38.17 66.24" style="fill:#aeaeae;opacity:0.30000001192092896;isolation:isolate"/><polygon points="117.23 23.28 125.73 21.82 115.15 10.72 117.23 23.28" style="fill:#aeaeae;opacity:0.30000001192092896;isolation:isolate"/><path d="M36.23,31.24c5.3-.91,5-4.3,4.61-6.27L38.52,11.42,34.85,12,37,24.81c0.21,1.38.44,2.74-1.36,3-2,.34-2.19-1.81-2.43-3.21l-2.06-12-3.67.63L29.88,27C30.48,30.57,32.8,31.83,36.23,31.24Z" style="fill:#fff"/><polygon points="51.65 28.3 51.06 24.85 47.29 25.49 46.57 21.3 49.85 20.74 49.26 17.29 45.98 17.85 45.29 13.81 49.01 13.18 48.42 9.72 41.03 10.99 44.21 29.57 51.65 28.3" style="fill:#fff"/><polygon points="63.58 26.26 62.26 18.55 65.63 17.97 65.04 14.52 61.67 15.09 60.99 11.13 64.74 10.48 64.14 7.04 56.73 8.3 59.9 26.89 63.58 26.26" style="fill:#fff"/><path d="M71.37,21.7l3.76-.63,1.23,3,3.92-.67L72.6,5.59l-3.87.66L67.59,25.57l3.65-.62Zm0-11,0.9,2.74L74,18.23l-2.59.44L71.4,13.58,71.31,10.7h0.06Z" style="fill:#fff"/><rect x="80.1" y="4.11" width="3.73" height="18.85" transform="translate(-1.11 14.02) rotate(-9.71)" style="fill:#fff"/><path d="M91.67,21.45L90.2,12.87h0l4.7,8,3.87-.66-4.64-7.88a5.24,5.24,0,0,0,1.81-5.26c-0.81-5.07-5.08-4.6-7.43-4.2l-3.7.63L88,22.08ZM89.5,5.82a2.13,2.13,0,0,1,2.89,1.89c0.26,1.53-.21,2.78-1.89,3.06l-0.65.08L89,5.85Z" style="fill:#fff"/><polygon points="108.5 18.57 107.91 15.12 104.14 15.77 103.42 11.58 106.7 11.02 106.11 7.57 102.83 8.13 102.14 4.09 105.86 3.45 105.27 0 97.88 1.26 101.06 19.85 108.5 18.57" style="fill:#fff"/><path d="M23.07,42.78a2.62,2.62,0,0,0,4.19-3.13l-3.84-5.21a13.42,13.42,0,1,0-4.18,3.14Zm-9.49-7.62a9.58,9.58,0,1,1,9.19-7.28,9.58,9.58,0,0,1-9.19,7.28h0Z" style="fill:#fff"/><path d="M66.64,39.62L60.7,40.68l2.43,13.64,3.47-.62-0.68-3.84,2.47-.44c3.49-.62,5.17-2.83,4.6-6S70.13,39,66.64,39.62Zm1.08,7.1-2.3.41-0.77-4.35,2.3-.41c1.52-.27,2.53.29,2.78,1.72a2.13,2.13,0,0,1-2,2.64h0Z" style="fill:#f94f4f"/><path d="M86.56,41C86,38,83.65,36.61,80,37.25l-6.1,1.08L76.37,52l3.47-.62-0.71-3.87L81.78,47h0.1l2.71,3.48,3.94-.7-3.67-4A4.62,4.62,0,0,0,86.56,41ZM81.3,44.33l-2.63.47L77.9,40.46,80.53,40c1.5-.27,2.51.3,2.76,1.72a2.11,2.11,0,0,1-2,2.59v0Z" style="fill:#f94f4f"/><path d="M94.5,34.55c-4.21.75-6.84,4.25-6.13,8.23a7.5,7.5,0,0,0,14.76-2.63C102.41,36.19,98.73,33.79,94.5,34.55Zm2,11a4,4,0,0,1-4.57-3.33V42.16A4,4,0,0,1,95,37.44h0a4.13,4.13,0,0,1,1.43,8.11h0Z" style="fill:#f94f4f"/></svg>